<svg version="1.1" id="Layer_1" xmlns="http://www.w3.org/2000/svg" xmlns:xlink="http://www.w3.org/1999/xlink" x="0px" y="0px"
	 width="100%" viewBox="0 0 512 512" enable-background="new 0 0 512 512" xml:space="preserve">
<path fill="#000000" opacity="1.000000" stroke="none" 
	d="
M513.000000,234.000000 
	C513.000000,326.980194 513.000000,419.960358 513.000000,512.970276 
	C342.389526,512.970276 171.779068,512.970276 1.084299,512.970276 
	C1.084299,342.425934 1.084299,171.851837 1.084299,1.138865 
	C171.666595,1.138865 342.333282,1.138865 513.000000,1.138865 
	C513.000000,68.765350 513.000000,136.417664 512.634033,204.762558 
	C511.849609,204.620544 511.238861,203.828979 511.041077,202.945007 
	C506.881317,184.354538 496.929138,169.598816 480.026947,160.892014 
	C471.541534,156.520935 461.570862,155.033096 452.008881,152.162384 
	C452.091553,151.004517 452.014984,149.672195 452.302185,148.423538 
	C455.434143,134.807068 454.760315,121.274742 450.479340,108.100937 
	C445.640015,93.208977 437.345734,80.588760 425.085632,70.412621 
	C410.259918,58.107018 393.327271,50.929817 374.434845,49.204136 
	C360.015839,47.887066 345.464874,48.704189 331.375305,53.011322 
	C327.853180,54.088024 325.511169,55.934677 325.534058,60.144836 
	C318.044250,63.488968 310.869324,66.676941 303.575623,69.917694 
	C297.273804,57.263927 288.157593,47.116364 277.147888,38.693836 
	C252.957764,20.188211 225.334442,14.413672 195.853363,19.384565 
	C172.772034,23.276379 152.064972,33.667656 134.464203,49.205688 
	C109.807983,70.972313 91.905037,97.194992 84.632416,128.908203 
	C78.355904,129.367386 72.319824,129.046432 66.667625,130.367661 
	C50.690357,134.102448 36.666798,141.413940 25.462463,153.913956 
	C13.018225,167.797272 5.980862,184.143112 4.235641,202.299850 
	C2.267496,222.775833 4.809127,242.892319 15.101217,261.318176 
	C26.362028,281.478333 42.104908,296.286163 65.351715,301.013123 
	C77.233704,303.429169 89.394508,304.507324 101.449310,306.031982 
	C117.918839,308.114990 134.407440,310.047272 150.950119,312.439056 
	C154.169724,322.219971 156.333786,332.096375 160.678085,340.896423 
	C171.910233,363.648926 188.938614,380.760590 212.609802,390.992676 
	C231.487381,399.152740 251.187637,401.271637 271.011383,397.693970 
	C298.395203,392.751923 321.049744,378.852753 338.512604,356.961273 
	C347.775909,345.348785 354.816315,332.568756 358.657074,317.980438 
	C392.730743,315.575500 426.121094,312.117432 456.809326,296.148102 
	C460.606354,299.639374 463.971222,297.505280 466.850800,295.513153 
	C488.389862,280.612549 504.886566,261.926239 511.082214,235.639877 
	C511.237946,234.979279 512.339539,234.541626 513.000000,234.000000 
M433.000488,412.380280 
	C432.319275,404.680695 431.868561,396.951569 430.887573,389.290375 
	C430.025696,382.559326 425.534668,379.023834 418.683777,379.006439 
	C408.853058,378.981537 399.004028,379.368378 389.196991,378.885620 
	C381.079163,378.485962 379.426483,384.005585 381.437134,389.455841 
	C384.415466,397.529114 384.567932,405.739746 383.823853,413.872253 
	C382.904236,423.923096 379.794189,430.457581 370.070282,432.259094 
	C364.088196,433.367371 357.797577,432.970947 351.645264,432.975037 
	C289.994385,433.016083 228.343491,433.007385 166.692596,432.993225 
	C155.458115,432.990662 144.502518,424.899811 139.749100,414.719788 
	C136.006195,406.703949 136.844208,398.510742 137.179565,390.398529 
	C137.501083,382.620789 132.198990,378.353394 124.934486,378.081757 
	C115.949364,377.745728 106.939056,377.856995 97.945320,378.045807 
	C90.242310,378.207489 85.273689,382.785736 85.029137,389.774750 
	C84.600037,402.038147 84.227882,414.305542 84.033012,426.574432 
	C83.871613,436.735931 84.106323,446.903412 83.975914,457.065796 
	C83.762543,473.694214 96.407379,492.282013 113.909134,498.111115 
	C123.049286,501.155273 132.185623,500.263245 141.567429,500.217133 
	C219.545609,499.834167 297.526489,499.999573 375.506531,500.003387 
	C377.005280,500.003448 378.504547,500.094147 380.002655,500.073730 
	C387.192749,499.975769 394.744141,501.236450 401.501221,499.468811 
	C418.400330,495.048065 430.888550,484.534546 435.102936,467.088104 
	C437.012085,459.184723 436.277191,450.504242 435.878052,442.217865 
	C435.412689,432.556610 434.002899,422.940887 433.000488,412.380280 
z"/>
<path fill="#1364DD" opacity="1.000000" stroke="none" 
	d="
M513.000000,233.531342 
	C512.339539,234.541626 511.237946,234.979279 511.082214,235.639877 
	C504.886566,261.926239 488.389862,280.612549 466.850800,295.513153 
	C463.971222,297.505280 460.606354,299.639374 456.742920,295.744934 
	C455.224548,291.188538 457.303589,289.119965 460.126251,286.739166 
	C468.493561,279.681793 477.593597,273.096344 484.449188,264.723236 
	C500.463318,245.164413 507.094604,222.795334 498.099976,198.026199 
	C492.284943,182.012939 481.742157,170.365051 463.985809,166.933868 
	C458.766510,165.925308 453.599243,164.515472 448.525482,162.917053 
	C441.033997,160.556976 439.393341,156.973145 440.933044,149.265549 
	C442.198303,142.931870 443.901520,136.419296 443.577118,130.079849 
	C442.056610,100.368019 422.142273,74.690109 393.930206,64.895264 
	C374.404755,58.116287 354.733459,58.075241 334.950256,63.461426 
	C330.883453,64.568657 327.707520,64.235825 325.848938,59.988670 
	C325.511169,55.934677 327.853180,54.088024 331.375305,53.011322 
	C345.464874,48.704189 360.015839,47.887066 374.434845,49.204136 
	C393.327271,50.929817 410.259918,58.107018 425.085632,70.412621 
	C437.345734,80.588760 445.640015,93.208977 450.479340,108.100937 
	C454.760315,121.274742 455.434143,134.807068 452.302185,148.423538 
	C452.014984,149.672195 452.091553,151.004517 452.008881,152.162384 
	C461.570862,155.033096 471.541534,156.520935 480.026947,160.892014 
	C496.929138,169.598816 506.881317,184.354538 511.041077,202.945007 
	C511.238861,203.828979 511.849609,204.620544 512.634033,205.227570 
	C513.000000,214.354233 513.000000,223.708450 513.000000,233.531342 
z"/>
<path fill="#28A745" opacity="1.000000" stroke="none" 
	d="
M325.534058,60.144836 
	C327.707520,64.235825 330.883453,64.568657 334.950256,63.461426 
	C354.733459,58.075241 374.404755,58.116287 393.930206,64.895264 
	C422.142273,74.690109 442.056610,100.368019 443.577118,130.079849 
	C443.901520,136.419296 442.198303,142.931870 440.933044,149.265549 
	C439.393341,156.973145 441.033997,160.556976 448.525482,162.917053 
	C453.599243,164.515472 458.766510,165.925308 463.985809,166.933868 
	C481.742157,170.365051 492.284943,182.012939 498.099976,198.026199 
	C507.094604,222.795334 500.463318,245.164413 484.449188,264.723236 
	C477.593597,273.096344 468.493561,279.681793 460.126251,286.739166 
	C457.303589,289.119965 455.224548,291.188538 456.542603,295.464417 
	C426.121094,312.117432 392.730743,315.575500 358.666138,317.595093 
	C361.951813,303.455200 361.955841,289.545441 359.993744,275.569214 
	C353.369720,228.385422 309.160156,188.258987 261.558167,186.186798 
	C199.399597,183.480957 149.248489,231.928162 149.896103,294.140717 
	C149.958252,300.111328 150.544769,306.076477 150.887863,312.044159 
	C134.407440,310.047272 117.918839,308.114990 101.449310,306.031982 
	C89.394508,304.507324 77.233704,303.429169 65.351715,301.013123 
	C42.104908,296.286163 26.362028,281.478333 15.101217,261.318176 
	C4.809127,242.892319 2.267496,222.775833 4.235641,202.299850 
	C5.980862,184.143112 13.018225,167.797272 25.462463,153.913956 
	C36.666798,141.413940 50.690357,134.102448 66.667625,130.367661 
	C72.319824,129.046432 78.355904,129.367386 84.632416,128.908203 
	C91.905037,97.194992 109.807983,70.972313 134.464203,49.205688 
	C152.064972,33.667656 172.772034,23.276379 195.853363,19.384565 
	C225.334442,14.413672 252.957764,20.188211 277.147888,38.693836 
	C288.157593,47.116364 297.273804,57.263927 303.575623,69.917694 
	C310.869324,66.676941 318.044250,63.488968 325.534058,60.144836 
M206.177399,47.419422 
	C215.814209,47.441990 225.452332,47.552704 235.086716,47.410805 
	C236.955582,47.383278 238.809921,46.370518 240.670959,45.812218 
	C239.012253,44.618046 237.508224,42.904091 235.658005,42.353500 
	C232.989746,41.559460 230.074524,41.388851 227.257141,41.333168 
	C179.325043,40.385815 142.747635,60.193581 118.134003,101.475578 
	C115.174110,106.439896 113.143951,111.985779 111.000992,117.388298 
	C110.540512,118.549210 111.458565,120.256920 111.741600,121.712753 
	C113.105499,120.873993 114.532158,120.117645 115.799774,119.152428 
	C116.252434,118.807762 116.308105,117.952477 116.565193,117.338745 
	C133.200882,77.625374 163.153763,54.849274 206.177399,47.419422 
M41.605076,268.079163 
	C43.450272,268.445099 45.295471,268.811035 47.140671,269.176971 
	C46.500038,267.535095 46.166939,265.669220 45.163517,264.291595 
	C41.552364,259.333710 37.123413,254.881760 34.085648,249.614532 
	C27.645649,238.448105 25.698174,226.257431 27.556797,213.422195 
	C27.764933,211.984863 26.232019,210.295425 25.506504,208.722900 
	C24.464188,209.985062 23.216122,211.135803 22.451391,212.548264 
	C21.935589,213.500931 22.056124,214.819397 21.969563,215.980026 
	C20.469631,236.091095 26.557718,253.400940 41.605076,268.079163 
z"/>
<path fill="#1363DF" opacity="1.000000" stroke="none" 
	d="
M150.950119,312.439056 
	C150.544769,306.076477 149.958252,300.111328 149.896103,294.140717 
	C149.248489,231.928162 199.399597,183.480957 261.558167,186.186798 
	C309.160156,188.258987 353.369720,228.385422 359.993744,275.569214 
	C361.955841,289.545441 361.951813,303.455200 358.219299,317.583954 
	C354.816315,332.568756 347.775909,345.348785 338.512604,356.961273 
	C321.049744,378.852753 298.395203,392.751923 271.011383,397.693970 
	C251.187637,401.271637 231.487381,399.152740 212.609802,390.992676 
	C188.938614,380.760590 171.910233,363.648926 160.678085,340.896423 
	C156.333786,332.096375 154.169724,322.219971 150.950119,312.439056 
M228.640015,328.854828 
	C234.971329,334.504059 241.081451,340.430817 247.706650,345.711273 
	C252.659912,349.659119 257.910950,348.457916 262.369171,343.969849 
	C270.457031,335.827759 278.687317,327.820923 287.038239,319.948669 
	C292.163177,315.117462 293.159607,309.374847 289.203735,304.569183 
	C285.331329,299.864899 279.089172,299.592560 273.719391,303.997833 
	C270.683990,306.488007 267.769318,309.125336 264.320129,312.112152 
	C264.320129,309.248352 264.281982,307.152222 264.326355,305.057800 
	C264.622620,291.069489 264.974426,277.082184 265.201141,263.092804 
	C265.232849,261.136780 265.010742,259.046204 264.329285,257.234924 
	C262.654205,252.782852 257.647736,250.269760 252.926483,251.173599 
	C248.001068,252.116547 244.775803,255.919815 244.619171,261.570160 
	C244.268326,274.226166 244.156647,286.888702 243.833679,299.545685 
	C243.722000,303.922119 243.273453,308.289948 242.950653,313.078949 
	C238.245590,309.232727 234.275009,305.699341 230.006775,302.572144 
	C224.914032,298.840912 218.918610,299.685455 215.307678,304.262573 
	C211.662628,308.882935 212.349625,314.589752 217.172989,318.889740 
	C220.776520,322.102264 224.475113,325.208130 228.640015,328.854828 
z"/>
<path fill="#1363DF" opacity="1.000000" stroke="none" 
	d="
M433.001709,412.842834 
	C434.002899,422.940887 435.412689,432.556610 435.878052,442.217865 
	C436.277191,450.504242 437.012085,459.184723 435.102936,467.088104 
	C430.888550,484.534546 418.400330,495.048065 401.501221,499.468811 
	C394.744141,501.236450 387.192749,499.975769 380.002655,500.073730 
	C378.504547,500.094147 377.005280,500.003448 375.506531,500.003387 
	C297.526489,499.999573 219.545609,499.834167 141.567429,500.217133 
	C132.185623,500.263245 123.049286,501.155273 113.909134,498.111115 
	C96.407379,492.282013 83.762543,473.694214 83.975914,457.065796 
	C84.106323,446.903412 83.871613,436.735931 84.033012,426.574432 
	C84.227882,414.305542 84.600037,402.038147 85.029137,389.774750 
	C85.273689,382.785736 90.242310,378.207489 97.945320,378.045807 
	C106.939056,377.856995 115.949364,377.745728 124.934486,378.081757 
	C132.198990,378.353394 137.501083,382.620789 137.179565,390.398529 
	C136.844208,398.510742 136.006195,406.703949 139.749100,414.719788 
	C144.502518,424.899811 155.458115,432.990662 166.692596,432.993225 
	C228.343491,433.007385 289.994385,433.016083 351.645264,432.975037 
	C357.797577,432.970947 364.088196,433.367371 370.070282,432.259094 
	C379.794189,430.457581 382.904236,423.923096 383.823853,413.872253 
	C384.567932,405.739746 384.415466,397.529114 381.437134,389.455841 
	C379.426483,384.005585 381.079163,378.485962 389.196991,378.885620 
	C399.004028,379.368378 408.853058,378.981537 418.683777,379.006439 
	C425.534668,379.023834 430.025696,382.559326 430.887573,389.290375 
	C431.868561,396.951569 432.319275,404.680695 433.001709,412.842834 
z"/>
<path fill="#1467D7" opacity="1.000000" stroke="none" 
	d="
M205.736725,47.498650 
	C163.153763,54.849274 133.200882,77.625374 116.565193,117.338745 
	C116.308105,117.952477 116.252434,118.807762 115.799774,119.152428 
	C114.532158,120.117645 113.105499,120.873993 111.741592,121.712753 
	C111.458565,120.256920 110.540512,118.549210 111.000992,117.388298 
	C113.143951,111.985779 115.174110,106.439896 118.134003,101.475578 
	C142.747635,60.193581 179.325043,40.385815 227.257141,41.333168 
	C230.074524,41.388851 232.989746,41.559460 235.658005,42.353500 
	C237.508224,42.904091 239.012253,44.618046 240.670959,45.812218 
	C238.809921,46.370518 236.955582,47.383278 235.086716,47.410805 
	C225.452332,47.552704 215.814209,47.441990 205.736725,47.498650 
z"/>
<path fill="#1466D9" opacity="1.000000" stroke="none" 
	d="
M41.330185,267.839172 
	C26.557718,253.400940 20.469631,236.091095 21.969563,215.980026 
	C22.056124,214.819397 21.935589,213.500931 22.451391,212.548264 
	C23.216122,211.135803 24.464188,209.985062 25.506504,208.722900 
	C26.232019,210.295425 27.764933,211.984863 27.556797,213.422195 
	C25.698174,226.257431 27.645649,238.448105 34.085648,249.614532 
	C37.123413,254.881760 41.552364,259.333710 45.163517,264.291595 
	C46.166939,265.669220 46.500038,267.535095 47.140671,269.177002 
	C45.295471,268.811035 43.450272,268.445099 41.330185,267.839172 
z"/>
<path fill="#FCFDFF" opacity="1.000000" stroke="none" 
	d="
M228.385696,328.608154 
	C224.475113,325.208130 220.776520,322.102264 217.172989,318.889740 
	C212.349625,314.589752 211.662628,308.882935 215.307678,304.262573 
	C218.918610,299.685455 224.914032,298.840912 230.006775,302.572144 
	C234.275009,305.699341 238.245590,309.232727 242.950653,313.078949 
	C243.273453,308.289948 243.722000,303.922119 243.833679,299.545685 
	C244.156647,286.888702 244.268326,274.226166 244.619171,261.570160 
	C244.775803,255.919815 248.001068,252.116547 252.926483,251.173599 
	C257.647736,250.269760 262.654205,252.782852 264.329285,257.234924 
	C265.010742,259.046204 265.232849,261.136780 265.201141,263.092804 
	C264.974426,277.082184 264.622620,291.069489 264.326355,305.057800 
	C264.281982,307.152222 264.320129,309.248352 264.320129,312.112152 
	C267.769318,309.125336 270.683990,306.488007 273.719391,303.997833 
	C279.089172,299.592560 285.331329,299.864899 289.203735,304.569183 
	C293.159607,309.374847 292.163177,315.117462 287.038239,319.948669 
	C278.687317,327.820923 270.457031,335.827759 262.369171,343.969849 
	C257.910950,348.457916 252.659912,349.659119 247.706650,345.711273 
	C241.081451,340.430817 234.971329,334.504059 228.385696,328.608154 
z"/>
</svg>